<svg width="91" height="69" viewBox="0 0 91 69" fill="none" xmlns="http://www.w3.org/2000/svg">
<path fill-rule="evenodd" clip-rule="evenodd" d="M0.0101032 56.9091C0.0033762 56.5627 0 56.2157 0 55.8681C0 31.9257 16.0135 11.0435 39.7555 0C60.0228 9.42717 74.6582 26.0239 78.508 45.5736C64.7921 55.1698 46.9847 60.9649 27.5231 60.9649C17.8428 60.9649 8.57186 59.5312 0.0101032 56.9091Z" fill="#29B1CE" fill-opacity="0.4"/>
<path fill-rule="evenodd" clip-rule="evenodd" d="M26.0117 50.5205C33.0895 61.4207 48.7801 69.0002 66.9997 69.0002C74.8452 69.0002 82.2218 67.5948 88.6437 65.124C90.0615 60.7931 90.8174 56.2407 90.8174 51.5438C90.8174 32.348 78.1904 15.5651 59.3615 6.45215C58.4594 6.56011 57.5665 6.68687 56.6837 6.83183C38.6147 15.8604 26.4454 32.0149 26.0117 50.5205Z" fill="#F4F1F1"/>
</svg>
