<svg width="30" height="30" viewBox="0 0 35 34" fill="none" xmlns="http://www.w3.org/2000/svg">
<path d="M17.5002 22.8333L25.0002 15.3333L22.6252 13L17.5002 18.125L12.3752 13L10.0002 15.3333L17.5002 22.8333ZM17.5002 33.6666C15.1946 33.6666 13.0279 33.2289 11.0002 32.3533C8.97239 31.4789 7.2085 30.2916 5.7085 28.7916C4.2085 27.2916 3.02127 25.5278 2.14683 23.5C1.27127 21.4722 0.833496 19.3055 0.833496 17C0.833496 14.6944 1.27127 12.5278 2.14683 10.5C3.02127 8.4722 4.2085 6.70831 5.7085 5.20831C7.2085 3.70831 8.97239 2.52053 11.0002 1.64498C13.0279 0.770535 15.1946 0.333313 17.5002 0.333313C19.8057 0.333313 21.9724 0.770535 24.0002 1.64498C26.0279 2.52053 27.7918 3.70831 29.2918 5.20831C30.7918 6.70831 31.9791 8.4722 32.8535 10.5C33.729 12.5278 34.1668 14.6944 34.1668 17C34.1668 19.3055 33.729 21.4722 32.8535 23.5C31.9791 25.5278 30.7918 27.2916 29.2918 28.7916C27.7918 30.2916 26.0279 31.4789 24.0002 32.3533C21.9724 33.2289 19.8057 33.6666 17.5002 33.6666ZM17.5002 30.3333C21.2224 30.3333 24.3752 29.0416 26.9585 26.4583C29.5418 23.875 30.8335 20.7222 30.8335 17C30.8335 13.2778 29.5418 10.125 26.9585 7.54165C24.3752 4.95831 21.2224 3.66665 17.5002 3.66665C13.7779 3.66665 10.6252 4.95831 8.04183 7.54165C5.4585 10.125 4.16683 13.2778 4.16683 17C4.16683 20.7222 5.4585 23.875 8.04183 26.4583C10.6252 29.0416 13.7779 30.3333 17.5002 30.3333Z" fill="#B3B2EB"/>
</svg>
