<svg width="30" height="30" viewBox="0 0 35 34" fill="none" xmlns="http://www.w3.org/2000/svg">
<path d="M17.5002 11.1667L25.0002 18.6667L22.6252 21L17.5002 15.875L12.3752 21L10.0002 18.6667L17.5002 11.1667ZM17.5002 0.333355C15.1946 0.333355 13.0279 0.771133 11.0002 1.64669C8.97239 2.52113 7.2085 3.70835 5.7085 5.20835C4.2085 6.70835 3.02127 8.47224 2.14683 10.5C1.27127 12.5278 0.833496 14.6945 0.833496 17C0.833496 19.3056 1.27127 21.4722 2.14683 23.5C3.02127 25.5278 4.2085 27.2917 5.7085 28.7917C7.2085 30.2917 8.97239 31.4795 11.0002 32.355C13.0279 33.2295 15.1946 33.6667 17.5002 33.6667C19.8057 33.6667 21.9724 33.2295 24.0002 32.355C26.0279 31.4795 27.7918 30.2917 29.2918 28.7917C30.7918 27.2917 31.9791 25.5278 32.8535 23.5C33.729 21.4722 34.1668 19.3056 34.1668 17C34.1668 14.6945 33.729 12.5278 32.8535 10.5C31.9791 8.47224 30.7918 6.70835 29.2918 5.20835C27.7918 3.70835 26.0279 2.52113 24.0002 1.64669C21.9724 0.771133 19.8057 0.333355 17.5002 0.333355ZM17.5002 3.66669C21.2224 3.66669 24.3752 4.95835 26.9585 7.54169C29.5418 10.125 30.8335 13.2778 30.8335 17C30.8335 20.7222 29.5418 23.875 26.9585 26.4584C24.3752 29.0417 21.2224 30.3334 17.5002 30.3334C13.7779 30.3334 10.6252 29.0417 8.04183 26.4584C5.4585 23.875 4.16683 20.7222 4.16683 17C4.16683 13.2778 5.4585 10.125 8.04183 7.54169C10.6252 4.95835 13.7779 3.66669 17.5002 3.66669Z" fill="#B3B2EB"/>
</svg>
