<?xml version="1.0" encoding="utf-8"?>
<!-- Generator: Adobe Illustrator 24.1.3, SVG Export Plug-In . SVG Version: 6.00 Build 0)  -->
<svg version="1.1" id="Layer_1" xmlns="http://www.w3.org/2000/svg" xmlns:xlink="http://www.w3.org/1999/xlink" x="0px" y="0px"
	 viewBox="0 0 153 45" style="enable-background:new 0 0 153 45;" xml:space="preserve">
<style type="text/css">
	.st0{fill:#000;}
</style>
<g>
	<g>
		<path class="st0" d="M15.75,32.7c-0.09,0.09-0.21,0.14-0.34,0.14c-0.13,0-0.25-0.05-0.34-0.14l-4.56-4.49
			c-0.53,0.79-1,1.61-1.39,2.47l5.32,5.24c0.26,0.25,0.61,0.4,0.98,0.4s0.72-0.14,0.98-0.4l5.33-5.24c-0.4-0.86-0.86-1.69-1.39-2.47
			L15.75,32.7z"/>
		<path class="st0" d="M30.63,21.33c0-0.18-0.04-0.36-0.1-0.52c-0.07-0.16-0.17-0.31-0.3-0.44l-5.03-4.95
			c-0.05-0.05-0.11-0.09-0.18-0.11c-0.07-0.02-0.14-0.03-0.21-0.02c-0.07,0.01-0.14,0.03-0.2,0.07c-0.06,0.04-0.11,0.09-0.15,0.15
			c-0.34,0.5-0.68,0.98-1.03,1.44c-0.07,0.09-0.1,0.2-0.1,0.32c0.01,0.11,0.06,0.22,0.14,0.3L26.95,21c0.05,0.04,0.08,0.1,0.11,0.15
			s0.04,0.12,0.04,0.18c0,0.06-0.01,0.12-0.04,0.18c-0.02,0.06-0.06,0.11-0.11,0.15l-4.55,4.48c0.54,0.77,1.04,1.57,1.48,2.39
			l6.35-6.25c0.13-0.13,0.23-0.28,0.3-0.44C30.59,21.69,30.63,21.51,30.63,21.33z"/>
		<path class="st0" d="M3.86,21.67c-0.05-0.04-0.08-0.1-0.11-0.15c-0.02-0.06-0.04-0.12-0.04-0.18c0-0.06,0.01-0.12,0.04-0.18
			c0.02-0.06,0.06-0.11,0.11-0.15l3.49-3.43c0.08-0.08,0.13-0.19,0.14-0.3c0.01-0.11-0.03-0.23-0.09-0.32
			c-0.35-0.46-0.7-0.94-1.03-1.44c-0.04-0.06-0.09-0.11-0.15-0.14c-0.06-0.04-0.13-0.06-0.2-0.07c-0.07-0.01-0.14,0-0.21,0.02
			c-0.07,0.02-0.13,0.06-0.18,0.11l-5.03,4.95c-0.26,0.26-0.4,0.6-0.4,0.96c0,0.36,0.15,0.71,0.4,0.96l6.35,6.25
			c0.44-0.83,0.93-1.63,1.48-2.39L3.86,21.67z"/>
		<path class="st0" d="M17.16,20.47c0.06,0.04,0.31,0.24,0.69,0.59c1.98-1.82,6.64-6.68,6.64-12.03c0-2.37-0.96-4.64-2.66-6.32
			c-1.7-1.68-4.01-2.62-6.42-2.62c-2.41,0-4.72,0.94-6.42,2.62c-1.7,1.68-2.66,3.95-2.66,6.32c0,5.36,4.66,10.22,6.64,12.03
			c0.38-0.34,0.63-0.55,0.69-0.59c0.5-0.39,1.12-0.61,1.76-0.61C16.04,19.87,16.66,20.08,17.16,20.47z M8.97,9.03
			c0-1.68,0.68-3.29,1.88-4.48C12.06,3.36,13.7,2.7,15.4,2.7c1.71,0,3.34,0.67,4.55,1.85c1.21,1.19,1.88,2.8,1.88,4.48
			c0,5.06-5.66,10.03-6.43,10.69C14.63,19.06,8.97,14.09,8.97,9.03z"/>
		<path class="st0" d="M17.85,21.06c-0.38-0.34-0.63-0.55-0.69-0.59c-0.5-0.39-1.12-0.61-1.76-0.61c-0.64,0-1.26,0.21-1.76,0.61
			c-0.05,0.04-0.3,0.25-0.69,0.59c-1.7,1.53-3.23,3.23-4.55,5.09c-0.54,0.77-1.04,1.57-1.48,2.39c-1.02,1.94-1.74,4.09-1.74,6.32
			c-0.01,1.33,0.24,2.65,0.74,3.88c0.51,1.23,1.26,2.35,2.2,3.3c0.95,0.94,2.08,1.69,3.32,2.21s2.58,0.78,3.93,0.78
			s2.69-0.26,3.93-0.78c1.25-0.51,2.38-1.26,3.32-2.21c0.95-0.94,1.7-2.06,2.2-3.3c0.51-1.23,0.76-2.55,0.74-3.88
			c0-2.23-0.72-4.39-1.74-6.32c-0.44-0.83-0.93-1.63-1.48-2.39C21.07,24.3,19.55,22.59,17.85,21.06z M22.71,34.87
			c0.01,0.95-0.17,1.9-0.53,2.78c-0.36,0.88-0.9,1.69-1.58,2.36c-0.68,0.68-1.49,1.22-2.38,1.58c-0.89,0.37-1.85,0.56-2.82,0.56
			s-1.93-0.19-2.82-0.56c-0.89-0.37-1.7-0.91-2.38-1.58c-0.68-0.68-1.22-1.48-1.58-2.36c-0.36-0.88-0.54-1.83-0.53-2.78
			c0-1.43,0.4-2.85,1.01-4.19c0.4-0.86,0.86-1.69,1.39-2.47c1.94-2.91,4.43-5.07,4.91-5.46c0.47,0.4,2.97,2.55,4.91,5.46
			c0.53,0.79,1,1.61,1.39,2.47C22.31,32.01,22.71,33.44,22.71,34.87z"/>
		<path class="st0" d="M40.35,16.7c0.94-0.8,2.16-1.23,3.53-1.23c1.75,0,3.38,0.58,4.47,2.03c1.09-1.32,2.72-2.03,4.62-2.03
			c1.53,0,2.97,0.4,4.03,1.38c0.97,0.86,1.56,2.28,1.56,4.3v8.18c0,0.12-0.05,0.24-0.14,0.32c-0.09,0.09-0.2,0.14-0.33,0.14h-3.19
			c-0.06,0-0.12-0.01-0.18-0.03c-0.06-0.02-0.11-0.06-0.15-0.1c-0.04-0.04-0.08-0.09-0.1-0.15c-0.02-0.06-0.03-0.12-0.03-0.18v-7.17
			c0-0.95-0.16-1.91-0.63-2.52c-0.34-0.43-0.91-0.77-1.81-0.77c-0.4-0.01-0.8,0.09-1.14,0.28s-0.63,0.48-0.83,0.83
			c-0.44,0.74-0.56,1.78-0.56,2.98v6.37c0,0.12-0.05,0.24-0.14,0.32c-0.09,0.09-0.2,0.14-0.33,0.14h-3.19
			c-0.06,0-0.12-0.01-0.18-0.03c-0.06-0.02-0.11-0.06-0.15-0.1c-0.04-0.04-0.08-0.09-0.1-0.15c-0.02-0.06-0.03-0.12-0.03-0.18v-7.16
			c0-0.95-0.16-1.91-0.62-2.52c-0.34-0.43-0.91-0.77-1.81-0.77c-0.94,0-1.56,0.46-1.97,1.11c-0.41,0.71-0.53,1.72-0.56,2.89v6.46
			c0,0.12-0.05,0.24-0.14,0.32c-0.09,0.09-0.2,0.14-0.33,0.14h-3.18c-0.06,0-0.12-0.01-0.18-0.03c-0.06-0.02-0.11-0.06-0.15-0.1
			c-0.04-0.04-0.08-0.09-0.1-0.15c-0.02-0.06-0.03-0.12-0.03-0.18V16.18c0-0.06,0.01-0.12,0.03-0.18c0.02-0.06,0.06-0.11,0.1-0.15
			c0.04-0.04,0.1-0.08,0.16-0.1c0.06-0.02,0.12-0.03,0.18-0.03h3.06c0.06,0,0.12,0.01,0.18,0.03c0.06,0.02,0.11,0.06,0.15,0.1
			c0.04,0.04,0.08,0.09,0.1,0.15c0.02,0.06,0.03,0.12,0.03,0.18v0.52H40.35z"/>
		<path class="st0" d="M68.45,15.44c4.31,0,7.75,2.77,7.75,7.35s-3.44,7.32-7.75,7.32c-4.31,0-7.72-2.74-7.72-7.32
			S64.14,15.44,68.45,15.44z M68.45,26.69c2.25,0,3.65-1.63,3.65-3.9s-1.41-3.9-3.65-3.9s-3.66,1.63-3.66,3.9
			S66.2,26.69,68.45,26.69z"/>
		<path class="st0" d="M78.89,8.86h3.19c0.12,0,0.24,0.05,0.33,0.14c0.09,0.09,0.14,0.2,0.14,0.32v20.02c0,0.12-0.05,0.24-0.14,0.32
			c-0.09,0.09-0.2,0.14-0.33,0.14h-3.19c-0.06,0-0.12-0.01-0.18-0.03c-0.06-0.02-0.11-0.06-0.15-0.1s-0.08-0.09-0.1-0.15
			c-0.02-0.06-0.03-0.12-0.03-0.18V9.32c0-0.06,0.01-0.12,0.03-0.18c0.02-0.06,0.06-0.11,0.1-0.15c0.04-0.04,0.1-0.08,0.15-0.1
			C78.77,8.87,78.83,8.86,78.89,8.86z"/>
		<path class="st0" d="M96.08,25.92c0.34-0.18,0.59-0.12,0.72,0.12l1.09,2c0.04,0.11,0.04,0.23,0,0.35
			c-0.04,0.11-0.12,0.21-0.22,0.27c-1.16,0.8-3.28,1.45-5.37,1.45c-2.41,0-4.34-0.74-5.69-2.06c-1.34-1.29-2.09-3.2-2.09-5.44
			c0-2.12,0.81-3.9,2.09-5.2c1.22-1.23,3-1.97,5.25-1.97c2.59,0,4.4,0.95,5.53,2.46c1.03,1.38,1.34,3.47,1.31,5.63
			c0,0.06-0.01,0.12-0.03,0.18c-0.02,0.06-0.06,0.11-0.1,0.15c-0.04,0.04-0.1,0.08-0.16,0.1c-0.06,0.02-0.12,0.03-0.18,0.03H88.9
			c0.16,0.8,0.44,1.38,0.94,1.88c0.63,0.65,1.62,1.02,2.78,1.02C93.99,26.88,95.05,26.51,96.08,25.92z M94.71,21.31
			c-0.01-0.67-0.25-1.32-0.69-1.84c-0.47-0.49-1.22-0.83-2.12-0.83c-0.94,0-1.78,0.31-2.25,0.83c-0.44,0.53-0.71,1.17-0.78,1.85
			L94.71,21.31z"/>
		<path class="st0" d="M111.77,25.83c0.31-0.18,0.56-0.12,0.69,0.12l1.16,2.21c0.12,0.21,0.03,0.43-0.19,0.58
			c-1.15,0.83-2.9,1.35-4.84,1.35c-2.62,0-4.69-0.8-6.09-2.24c-1.19-1.26-1.87-3.01-1.87-5.1c0-1.82,0.59-3.35,1.56-4.52
			c1.47-1.78,3.84-2.76,6.5-2.76c1.94,0,3.53,0.58,4.69,1.38c0.22,0.15,0.31,0.36,0.19,0.61l-1.22,2.24
			c-0.09,0.22-0.41,0.28-0.69,0.12c-1-0.62-1.85-0.92-2.97-0.92c-1.16,0-2.16,0.43-2.84,1.17c-0.66,0.74-1.02,1.69-1,2.68
			c0,1.14,0.37,2.12,1.03,2.8c0.66,0.71,1.62,1.14,2.81,1.14C109.83,26.69,110.74,26.42,111.77,25.83z"/>
		<path class="st0" d="M115.89,16.18c0-0.06,0.01-0.12,0.03-0.18c0.02-0.06,0.06-0.11,0.1-0.15c0.04-0.04,0.1-0.08,0.15-0.1
			c0.06-0.02,0.12-0.03,0.18-0.03h3.19c0.06,0,0.12,0.01,0.18,0.03c0.06,0.02,0.11,0.06,0.15,0.1c0.04,0.04,0.08,0.09,0.1,0.15
			c0.02,0.06,0.03,0.12,0.03,0.18v7.29c0,0.8,0.12,1.38,0.41,1.91c0.41,0.77,1.22,1.29,2.53,1.29c1.31,0,2.12-0.52,2.56-1.29
			c0.28-0.52,0.4-1.11,0.4-1.91v-7.29c0-0.06,0.01-0.12,0.03-0.18c0.02-0.06,0.06-0.11,0.1-0.15c0.04-0.04,0.1-0.08,0.16-0.1
			c0.06-0.02,0.12-0.03,0.18-0.03h3.19c0.06,0,0.12,0.01,0.18,0.03c0.06,0.02,0.11,0.06,0.15,0.1c0.04,0.04,0.08,0.09,0.1,0.15
			c0.02,0.06,0.04,0.12,0.03,0.18v7.56c0,1.82-0.44,3.14-1.25,4.15c-1.22,1.51-3.28,2.21-5.84,2.21c-2.53,0-4.59-0.71-5.81-2.21
			c-0.81-1.01-1.25-2.34-1.25-4.15V16.18z"/>
		<path class="st0" d="M133.07,8.86h3.19c0.12,0,0.24,0.05,0.33,0.14c0.09,0.09,0.14,0.2,0.14,0.32v20.02
			c0,0.12-0.05,0.24-0.14,0.32c-0.09,0.09-0.21,0.14-0.33,0.14h-3.19c-0.06,0-0.12-0.01-0.18-0.03c-0.06-0.02-0.11-0.06-0.15-0.1
			c-0.04-0.04-0.08-0.09-0.1-0.15c-0.02-0.06-0.04-0.12-0.03-0.18V9.32c0-0.06,0.01-0.12,0.03-0.18c0.02-0.06,0.06-0.11,0.1-0.15
			c0.04-0.04,0.1-0.08,0.15-0.1C132.95,8.87,133.01,8.86,133.07,8.86z"/>
		<path class="st0" d="M150.19,25.92c0.34-0.18,0.59-0.12,0.72,0.12l1.09,2c0.04,0.11,0.04,0.23,0,0.35
			c-0.04,0.11-0.12,0.21-0.22,0.27c-1.16,0.8-3.28,1.45-5.37,1.45c-2.41,0-4.34-0.74-5.69-2.06c-1.35-1.29-2.09-3.2-2.09-5.44
			c0-2.12,0.81-3.9,2.09-5.2c1.22-1.23,3-1.97,5.25-1.97c2.59,0,4.4,0.95,5.53,2.46c1.03,1.38,1.34,3.47,1.31,5.63
			c0,0.06-0.01,0.12-0.03,0.18c-0.02,0.06-0.06,0.11-0.1,0.15c-0.04,0.04-0.1,0.08-0.16,0.1c-0.06,0.02-0.12,0.03-0.18,0.03h-9.34
			c0.16,0.8,0.44,1.38,0.94,1.88c0.62,0.65,1.62,1.02,2.78,1.02C148.1,26.88,149.16,26.51,150.19,25.92z M148.82,21.31
			c-0.01-0.67-0.25-1.33-0.69-1.85c-0.47-0.49-1.22-0.83-2.12-0.83c-0.94,0-1.78,0.31-2.25,0.83c-0.44,0.49-0.69,1.14-0.78,1.85
			H148.82z"/>
	</g>
</g>
</svg>
